<svg width="732" height="240" style="overflow: hidden;" aria-label="A chart." xmlns="http://www.w3.org/2000/svg" viewBox="0 0 732 240"><defs id="_ABSTRACT_RENDERER_ID_70"><clipPath id="_ABSTRACT_RENDERER_ID_71"><rect x="73" y="10" width="659" height="180"></rect></clipPath></defs><rect x="0" y="0" width="732" height="240" stroke="none" stroke-width="0" fill="#ffffff"></rect><g><rect x="73" y="10" width="659" height="180" stroke="#eeeeee" stroke-width="1" fill-opacity="0" fill="#ffffff"></rect><g clip-path="url(#_ABSTRACT_RENDERER_ID_71)"><g><rect x="73" y="189" width="659" height="1" stroke="none" stroke-width="0" fill="#eeeeee"></rect><rect x="73" y="129" width="659" height="1" stroke="none" stroke-width="0" fill="#eeeeee"></rect><rect x="73" y="70" width="659" height="1" stroke="none" stroke-width="0" fill="#eeeeee"></rect><rect x="73" y="10" width="659" height="1" stroke="none" stroke-width="0" fill="#eeeeee"></rect><rect x="73" y="159" width="659" height="1" stroke="none" stroke-width="0" fill="#f8f8f8"></rect><rect x="73" y="100" width="659" height="1" stroke="none" stroke-width="0" fill="#f8f8f8"></rect><rect x="73" y="40" width="659" height="1" stroke="none" stroke-width="0" fill="#f8f8f8"></rect></g><g><rect x="105" y="172" width="102" height="17" stroke="none" stroke-width="0" fill="#ce2029"></rect><rect x="269" y="172" width="102" height="17" stroke="none" stroke-width="0" fill="#ce2029"></rect><rect x="434" y="89" width="102" height="100" stroke="none" stroke-width="0" fill="#ce2029"></rect><rect x="598" y="41" width="102" height="148" stroke="none" stroke-width="0" fill="#ce2029"></rect></g><g><rect x="73" y="189" width="659" height="1" stroke="none" stroke-width="0" fill="#333333"></rect></g><g><rect x="156" y="172" width="1" height="0" stroke="none" stroke-width="0" fill="#999999"></rect><rect x="320" y="172" width="1" height="0" stroke="none" stroke-width="0" fill="#999999"></rect><rect x="485" y="89" width="1" height="0" stroke="none" stroke-width="0" fill="#999999"></rect><rect x="649" y="41" width="1" height="0" stroke="none" stroke-width="0" fill="#999999"></rect></g></g><g></g><g><g><text text-anchor="middle" x="155.75" y="207.2" font-family="Arial" font-size="12" stroke="none" stroke-width="0" fill="#222222">1</text></g><g><text text-anchor="middle" x="320.25" y="207.2" font-family="Arial" font-size="12" stroke="none" stroke-width="0" fill="#222222">2</text></g><g><text text-anchor="middle" x="484.75" y="207.2" font-family="Arial" font-size="12" stroke="none" stroke-width="0" fill="#222222">3</text></g><g><text text-anchor="middle" x="649.25" y="207.2" font-family="Arial" font-size="12" stroke="none" stroke-width="0" fill="#222222">4</text></g><g><text text-anchor="end" x="61" y="193.7" font-family="Arial" font-size="12" stroke="none" stroke-width="0" fill="#444444">0</text></g><g><text text-anchor="end" x="61" y="134.0333" font-family="Arial" font-size="12" stroke="none" stroke-width="0" fill="#444444">10</text></g><g><text text-anchor="end" x="61" y="74.36670000000001" font-family="Arial" font-size="12" stroke="none" stroke-width="0" fill="#444444">20</text></g><g><text text-anchor="end" x="61" y="14.7" font-family="Arial" font-size="12" stroke="none" stroke-width="0" fill="#444444">30</text></g></g><g><g><g><text text-anchor="middle" x="156" y="184.2" font-family="Arial" font-size="12" stroke="none" stroke-width="0" fill="#ffffff">3 (6.3%)</text><rect x="133.5" y="174" width="45" height="12" stroke="none" stroke-width="0" fill-opacity="0" fill="#ffffff"></rect></g></g><g><g><text text-anchor="middle" x="320" y="184.2" font-family="Arial" font-size="12" stroke="none" stroke-width="0" fill="#ffffff">3 (6.3%)</text><rect x="297.5" y="174" width="45" height="12" stroke="none" stroke-width="0" fill-opacity="0" fill="#ffffff"></rect></g></g><g><g><text text-anchor="middle" x="485" y="101.2" font-family="Arial" font-size="12" stroke="none" stroke-width="0" fill="#ffffff">17 (35.4%)</text><rect x="455.5" y="91" width="59" height="12" stroke="none" stroke-width="0" fill-opacity="0" fill="#ffffff"></rect></g></g><g><g><text text-anchor="middle" x="649" y="53.2" font-family="Arial" font-size="12" stroke="none" stroke-width="0" fill="#ffffff">25 (52.1%)</text><rect x="619.5" y="43" width="59" height="12" stroke="none" stroke-width="0" fill-opacity="0" fill="#ffffff"></rect></g></g></g></g><g></g></svg>
