<svg xmlns="http://www.w3.org/2000/svg" viewBox="0 0 64 64" fill="currentColor" role="img" aria-label="Questions and contact"><title>Questions and contact</title><circle cx="32" cy="32" r="26.5" fill="none" stroke="currentColor" stroke-width="7"/><path d="M36.05 37.74Q35.72 38.78 35.69 40.37A0.6 0.6 0 0 1 35.09 40.97H28.91A0.6 0.6 0 0 1 28.31 40.37Q28.47 36.35 29.18 34.58Q29.9 32.82 32.85 30.52L34.84 28.97Q35.83 28.23 36.43 27.35Q37.52 25.85 37.52 24.05Q37.52 21.97 36.31 20.26Q35.09 18.55 31.86 18.55Q28.69 18.55 27.37 20.66Q26.04 22.76 26.04 24.43A0.6 0.6 0 0 1 25.44 25.03H18.74A0.6 0.6 0 0 1 18.14 24.43Q18.47 17.24 23.58 13.99Q26.81 11.91 31.51 11.91Q37.69 11.91 41.77 14.86Q45.86 17.81 45.86 23.61Q45.86 27.16 44.08 29.59Q43.04 31.07 40.09 33.37L38.15 34.87Q36.56 36.1 36.05 37.74Z"/><rect x="28.12" y="44.71" width="8.14" height="7.9" rx="0.6"/></svg>
